<svg xmlns="http://www.w3.org/2000/svg" xmlns:xlink="http://www.w3.org/1999/xlink" width="2000" zoomAndPan="magnify" viewBox="0 0 1500 1499.999933" height="2000" preserveAspectRatio="xMidYMid meet" version="1.0"><defs><g/><clipPath id="73df3abb0d"><path d="M 952.039062 530.75 L 1350 530.75 L 1350 933.5 L 952.039062 933.5 Z M 952.039062 530.75 " clip-rule="nonzero"/></clipPath><clipPath id="3d3363176a"><rect x="0" width="793" y="0" height="253"/></clipPath><clipPath id="50710c1f21"><path d="M 9 0.078125 L 57 0.078125 L 57 63 L 9 63 Z M 9 0.078125 " clip-rule="nonzero"/></clipPath><clipPath id="1317d721d8"><path d="M 133 0.078125 L 193 0.078125 L 193 63 L 133 63 Z M 133 0.078125 " clip-rule="nonzero"/></clipPath><clipPath id="02bc15000a"><path d="M 275 0.078125 L 321 0.078125 L 321 63 L 275 63 Z M 275 0.078125 " clip-rule="nonzero"/></clipPath><clipPath id="f164c72c66"><path d="M 404 0.078125 L 413 0.078125 L 413 63 L 404 63 Z M 404 0.078125 " clip-rule="nonzero"/></clipPath><clipPath id="9ca5129c1d"><path d="M 502 0.078125 L 558 0.078125 L 558 63 L 502 63 Z M 502 0.078125 " clip-rule="nonzero"/></clipPath><clipPath id="ded4fc0238"><rect x="0" width="635" y="0" height="79"/></clipPath></defs><g clip-path="url(#73df3abb0d)"><path fill="#004aad" d="M 1255.402344 604.703125 L 1263.605469 604.566406 L 1280.007812 604.289062 L 1296.410156 604.015625 L 1304.613281 603.878906 L 1308.679688 603.808594 L 1310.816406 603.808594 C 1311.851562 603.808594 1312.882812 603.878906 1313.847656 603.878906 C 1317.914062 604.222656 1321.980469 605.253906 1325.839844 606.839844 C 1329.632812 608.425781 1333.148438 610.769531 1336.179688 613.527344 C 1339.210938 616.285156 1341.832031 619.523438 1343.898438 623.175781 C 1345.96875 626.828125 1347.34375 630.824219 1348.171875 634.890625 C 1348.308594 635.925781 1348.515625 636.960938 1348.585938 637.925781 C 1348.65625 638.957031 1348.722656 639.992188 1348.722656 640.957031 L 1348.792969 645.230469 L 1348.863281 653.433594 L 1349 669.835938 L 1349.34375 702.574219 L 1349.6875 768.121094 L 1349.6875 833.734375 L 1349.550781 866.472656 L 1349.480469 882.875 L 1349.480469 889.21875 C 1349.414062 890.25 1349.414062 891.355469 1349.34375 892.386719 C 1348.863281 896.523438 1347.757812 900.589844 1345.96875 904.449219 C 1342.519531 912.101562 1336.386719 918.304688 1329.082031 922.164062 C 1325.429688 924.09375 1321.363281 925.402344 1317.296875 925.953125 C 1315.226562 926.296875 1313.160156 926.367188 1311.09375 926.4375 L 1307.027344 926.367188 L 1274.148438 925.402344 L 1257.746094 924.917969 L 1249.542969 924.644531 C 1248.097656 924.644531 1246.992188 924.574219 1245.820312 924.574219 C 1244.652344 924.574219 1243.480469 924.574219 1242.375 924.644531 C 1237.6875 924.78125 1233.070312 925.472656 1228.453125 926.710938 C 1227.28125 926.988281 1226.179688 927.332031 1225.078125 927.675781 L 1221.148438 928.847656 L 1217.011719 930.089844 C 1215.496094 930.503906 1214.046875 930.917969 1212.53125 931.261719 C 1206.535156 932.707031 1200.332031 933.464844 1194.128906 933.535156 C 1193.371094 933.535156 1192.613281 933.535156 1191.855469 933.535156 L 1189.648438 933.464844 L 1185.582031 933.398438 L 1177.382812 933.121094 L 1144.644531 932.15625 L 1111.90625 931.054688 L 1103.703125 930.710938 L 1099.636719 930.570312 L 1097.5 930.503906 L 1095.226562 930.433594 C 1089.089844 930.019531 1083.09375 928.847656 1077.375 926.78125 C 1071.585938 924.851562 1066.277344 922.09375 1061.246094 918.785156 C 1060.28125 918.164062 1058.628906 916.925781 1056.835938 915.617188 C 1052.699219 912.582031 1047.738281 910.859375 1042.636719 910.585938 C 1034.4375 910.171875 1026.097656 909.824219 1017.824219 909.34375 L 985.085938 907.550781 C 974.128906 906.863281 963.308594 906.3125 952.347656 905.414062 C 963.308594 904.65625 974.265625 904.035156 985.085938 903.277344 L 1017.824219 901.554688 C 1025.613281 901.140625 1033.332031 900.796875 1041.191406 900.453125 C 1042.777344 900.382812 1049.183594 900.316406 1051.734375 900.867188 C 1056.007812 901.898438 1066.484375 907.484375 1067.792969 908.171875 C 1072.136719 910.515625 1076.683594 912.445312 1081.441406 913.617188 C 1086.195312 914.789062 1091.019531 915.410156 1095.847656 915.410156 L 1097.636719 915.410156 L 1099.707031 915.339844 L 1103.773438 915.203125 L 1111.972656 914.855469 L 1144.710938 913.753906 L 1177.449219 912.789062 L 1185.652344 912.515625 L 1189.71875 912.445312 L 1191.578125 912.375 C 1192.199219 912.375 1192.75 912.308594 1193.371094 912.308594 C 1198.128906 911.960938 1202.8125 911.203125 1207.292969 909.964844 C 1208.398438 909.621094 1209.570312 909.273438 1210.671875 908.929688 L 1214.324219 907.6875 L 1218.113281 906.3125 C 1219.5625 905.828125 1221.078125 905.277344 1222.527344 904.863281 C 1228.453125 903.070312 1234.65625 901.898438 1240.859375 901.28125 C 1242.375 901.140625 1244.03125 901.003906 1245.546875 901.003906 C 1247.0625 900.933594 1248.785156 900.933594 1250.027344 900.933594 L 1258.160156 900.933594 L 1274.5625 900.867188 L 1307.300781 900.796875 L 1311.367188 900.796875 C 1312.058594 900.726562 1312.609375 900.726562 1313.296875 900.519531 C 1314.539062 900.246094 1315.847656 899.832031 1317.019531 899.144531 C 1319.226562 897.765625 1321.15625 895.765625 1322.121094 893.351562 C 1322.601562 892.183594 1322.878906 890.871094 1323.085938 889.632812 C 1323.085938 889.285156 1323.085938 888.941406 1323.085938 888.667969 L 1323.085938 883.015625 L 1322.945312 866.609375 L 1322.464844 833.871094 L 1322.121094 768.257812 L 1322.121094 702.644531 L 1322.257812 669.90625 L 1322.328125 653.5 L 1322.394531 645.300781 L 1322.394531 641.300781 C 1322.394531 640.957031 1322.394531 640.613281 1322.394531 640.269531 C 1322.394531 639.925781 1322.328125 639.578125 1322.328125 639.304688 C 1321.707031 634.132812 1317.089844 629.65625 1311.710938 629.101562 C 1311.367188 629.101562 1311.023438 629.101562 1310.679688 629.035156 C 1310.609375 629.035156 1310.402344 629.035156 1310.265625 629.035156 L 1308.75 629.035156 L 1304.683594 628.964844 L 1296.480469 628.828125 L 1280.078125 628.550781 L 1263.671875 628.277344 L 1255.472656 628.136719 L 1251.40625 628.070312 L 1248.921875 628 C 1247.40625 627.929688 1245.960938 627.722656 1244.511719 627.3125 C 1238.652344 625.863281 1233.621094 621.796875 1230.933594 616.558594 C 1230.589844 615.871094 1230.246094 615.179688 1229.96875 614.492188 C 1229.832031 614.078125 1229.832031 614.078125 1229.695312 613.800781 L 1229.554688 613.320312 L 1228.867188 611.390625 L 1227.488281 607.597656 L 1221.976562 592.160156 L 1216.460938 576.722656 L 1213.773438 569.003906 L 1212.394531 565.074219 L 1212.050781 564.109375 L 1211.773438 563.417969 C 1211.636719 563.007812 1211.429688 562.453125 1211.292969 562.179688 C 1209.777344 558.734375 1207.292969 555.632812 1204.261719 553.355469 C 1201.089844 551.082031 1197.574219 549.429688 1193.578125 548.945312 C 1193.097656 548.875 1192.613281 548.875 1192.132812 548.808594 L 1191.375 548.738281 C 1191.097656 548.738281 1190.683594 548.738281 1190.339844 548.738281 L 1186.273438 548.601562 L 1178.070312 548.324219 L 1161.597656 547.980469 L 1128.792969 546.671875 L 1120.589844 546.328125 C 1117.96875 546.257812 1114.9375 546.050781 1112.871094 546.050781 C 1110.664062 546.121094 1108.390625 546.464844 1106.183594 547.085938 C 1103.980469 547.773438 1101.84375 548.601562 1099.84375 549.636719 C 1097.914062 550.738281 1095.914062 552.183594 1094.261719 553.703125 C 1092.539062 555.285156 1091.019531 557.078125 1089.78125 559.078125 C 1088.539062 561.007812 1087.507812 563.210938 1086.609375 565.417969 L 1083.851562 573.136719 L 1072.894531 604.085938 C 1069.171875 614.355469 1065.519531 624.691406 1061.589844 634.890625 C 1063.867188 624.210938 1066.414062 613.527344 1068.898438 602.914062 L 1076.546875 571 L 1078.410156 563.007812 C 1079.167969 560.042969 1080.269531 557.148438 1081.71875 554.320312 C 1083.164062 551.632812 1084.957031 548.945312 1087.09375 546.601562 C 1089.230469 544.328125 1091.574219 542.191406 1094.121094 540.332031 C 1096.742188 538.539062 1099.566406 537.089844 1102.601562 535.917969 C 1105.5625 534.816406 1108.804688 534.128906 1111.90625 533.714844 C 1115.351562 533.371094 1117.761719 533.371094 1120.589844 533.300781 L 1128.792969 532.957031 L 1161.53125 531.785156 L 1177.933594 531.164062 L 1186.136719 530.886719 L 1190.203125 530.75 L 1192.476562 530.75 C 1193.304688 530.75 1194.269531 530.75 1195.09375 530.820312 C 1202.054688 531.300781 1208.949219 533.714844 1214.875 537.503906 C 1220.734375 541.433594 1225.765625 546.808594 1229.074219 553.21875 C 1229.488281 553.976562 1229.832031 554.804688 1230.246094 555.699219 L 1230.726562 556.871094 L 1231.140625 557.835938 L 1232.726562 561.628906 L 1235.898438 569.210938 L 1242.167969 584.371094 L 1249.269531 600.636719 C 1250.441406 603.1875 1252.785156 604.84375 1255.402344 604.703125 " fill-opacity="1" fill-rule="nonzero"/></g><path fill="#1800ad" d="M 1059.800781 717.253906 C 1064.347656 708.019531 1070.550781 699.199219 1078.476562 691.824219 L 1081.441406 689.136719 C 1082.476562 688.308594 1083.507812 687.410156 1084.613281 686.585938 C 1086.679688 684.792969 1088.953125 683.34375 1091.160156 681.761719 C 1095.707031 678.796875 1100.464844 676.109375 1105.5625 673.832031 C 1108.046875 672.664062 1110.664062 671.765625 1113.285156 670.800781 C 1114.523438 670.320312 1115.902344 669.972656 1117.28125 669.5625 C 1118.660156 669.214844 1119.898438 668.734375 1121.277344 668.457031 C 1123.964844 667.835938 1126.722656 667.078125 1129.480469 666.734375 C 1130.859375 666.460938 1132.304688 666.320312 1133.617188 666.046875 L 1137.75 665.632812 C 1143.332031 665.148438 1149.054688 665.148438 1154.636719 665.632812 C 1160.289062 666.113281 1165.941406 667.011719 1171.523438 668.457031 C 1177.039062 669.90625 1182.480469 671.765625 1187.789062 674.109375 C 1193.027344 676.382812 1198.128906 679.277344 1202.953125 682.449219 C 1212.738281 688.722656 1221.214844 696.855469 1228.382812 706.019531 C 1232.039062 710.570312 1235.070312 715.601562 1237.894531 720.703125 C 1240.722656 725.871094 1243.066406 731.246094 1244.925781 736.828125 C 1246.785156 742.34375 1248.234375 748.132812 1249.199219 753.851562 C 1250.164062 759.644531 1250.648438 765.5 1250.648438 771.359375 C 1250.578125 777.21875 1250.164062 783.078125 1249.199219 788.867188 C 1248.234375 794.65625 1246.855469 800.375 1244.925781 805.890625 C 1243.066406 811.472656 1240.652344 816.847656 1237.894531 822.019531 C 1235.070312 827.1875 1231.96875 832.148438 1228.382812 836.699219 C 1214.117188 855.101562 1193.785156 868.679688 1171.523438 874.261719 C 1166.007812 875.707031 1160.289062 876.535156 1154.636719 877.085938 C 1148.984375 877.570312 1143.265625 877.570312 1137.683594 877.085938 L 1133.546875 876.675781 C 1132.167969 876.535156 1130.722656 876.261719 1129.410156 875.984375 C 1126.585938 875.640625 1123.898438 874.949219 1121.210938 874.261719 C 1119.832031 873.984375 1118.523438 873.503906 1117.210938 873.089844 C 1115.832031 872.675781 1114.59375 872.332031 1113.214844 871.847656 C 1110.59375 870.816406 1107.976562 869.988281 1105.496094 868.816406 C 1100.394531 866.609375 1095.640625 863.785156 1091.089844 860.890625 C 1088.886719 859.304688 1086.609375 857.859375 1084.542969 856.066406 C 1083.507812 855.238281 1082.40625 854.34375 1081.371094 853.515625 L 1078.410156 850.828125 C 1070.621094 843.523438 1064.417969 834.699219 1059.730469 825.394531 C 1073.789062 840.695312 1091.296875 851.449219 1109.976562 856.066406 C 1119.210938 858.546875 1128.722656 859.304688 1138.097656 858.890625 C 1147.398438 858.476562 1156.5 856.546875 1165.113281 853.445312 C 1173.660156 850.207031 1181.65625 845.867188 1188.824219 840.351562 C 1195.921875 834.835938 1202.125 828.289062 1207.226562 821.054688 C 1212.257812 813.746094 1216.390625 805.753906 1218.875 797.34375 C 1220.113281 793.207031 1221.214844 788.867188 1221.90625 784.523438 C 1222.59375 780.183594 1222.871094 775.769531 1222.941406 771.359375 C 1222.941406 766.949219 1222.59375 762.539062 1221.976562 758.195312 C 1221.285156 753.851562 1220.25 749.511719 1218.941406 745.375 C 1216.390625 736.898438 1212.324219 728.972656 1207.292969 721.667969 C 1202.195312 714.359375 1195.921875 707.8125 1188.890625 702.300781 C 1181.792969 696.785156 1173.796875 692.375 1165.183594 689.203125 C 1156.636719 686.035156 1147.539062 684.171875 1138.097656 683.757812 C 1128.792969 683.34375 1119.28125 684.101562 1109.976562 686.585938 C 1091.296875 691.132812 1073.929688 702.023438 1059.800781 717.253906 " fill-opacity="1" fill-rule="nonzero"/><path fill="#5170ff" d="M 1173.523438 736.691406 C 1171.386719 734.210938 1169.25 731.867188 1166.835938 729.730469 C 1165.734375 728.628906 1164.492188 727.59375 1163.183594 726.558594 C 1161.941406 725.59375 1160.632812 724.628906 1159.394531 723.734375 C 1156.773438 721.941406 1154.015625 720.496094 1151.261719 719.183594 C 1148.433594 717.945312 1145.609375 716.703125 1142.574219 715.945312 C 1136.71875 714.152344 1130.582031 713.601562 1124.65625 713.742188 C 1118.660156 714.085938 1112.800781 715.1875 1107.289062 717.117188 C 1101.773438 719.253906 1096.671875 722.148438 1091.988281 725.800781 L 1090.261719 727.179688 C 1089.644531 727.59375 1089.089844 728.144531 1088.679688 728.628906 C 1087.644531 729.660156 1086.609375 730.695312 1085.507812 731.660156 L 1082.683594 734.96875 L 1081.992188 735.796875 L 1081.371094 736.761719 L 1080.132812 738.550781 C 1076.890625 743.378906 1074.273438 748.546875 1072.6875 754.199219 C 1071.101562 759.710938 1070.207031 765.5 1070.136719 771.359375 C 1070.207031 777.148438 1071.101562 782.871094 1072.6875 788.523438 C 1074.273438 794.105469 1077.03125 799.273438 1080.132812 804.167969 L 1081.371094 805.960938 L 1081.992188 806.925781 L 1082.683594 807.75 L 1085.507812 811.058594 C 1086.542969 812.09375 1087.644531 813.128906 1088.679688 814.09375 C 1089.160156 814.574219 1089.78125 815.125 1090.261719 815.539062 L 1091.988281 816.917969 C 1096.535156 820.5 1101.773438 823.464844 1107.289062 825.601562 C 1112.800781 827.53125 1118.726562 828.632812 1124.65625 828.980469 C 1130.652344 829.117188 1136.71875 828.496094 1142.574219 826.773438 C 1145.539062 826.015625 1148.367188 824.84375 1151.261719 823.535156 C 1154.085938 822.15625 1156.773438 820.640625 1159.394531 818.984375 C 1160.769531 818.160156 1161.941406 817.125 1163.183594 816.160156 C 1164.355469 815.125 1165.664062 814.230469 1166.835938 812.988281 C 1169.316406 810.851562 1171.316406 808.507812 1173.523438 806.027344 C 1170.558594 811.816406 1166.5625 817.261719 1161.667969 821.742188 L 1159.804688 823.464844 C 1159.1875 823.949219 1158.566406 824.5 1157.875 825.050781 C 1156.636719 826.152344 1155.1875 826.980469 1153.808594 828.015625 C 1150.914062 829.804688 1147.953125 831.460938 1144.78125 832.839844 C 1138.507812 835.664062 1131.6875 837.179688 1124.726562 837.664062 C 1117.761719 838.007812 1110.734375 837.320312 1103.910156 835.457031 C 1097.085938 833.527344 1090.675781 830.359375 1084.886719 826.292969 L 1082.75 824.773438 C 1082.0625 824.292969 1081.304688 823.742188 1080.613281 823.191406 L 1076.617188 819.605469 C 1075.445312 818.363281 1074.273438 816.988281 1072.964844 815.675781 L 1072 814.644531 L 1071.171875 813.609375 L 1069.585938 811.472656 C 1069.105469 810.785156 1068.484375 810.023438 1068 809.335938 L 1066.621094 807.0625 C 1065.65625 805.546875 1064.761719 804.027344 1064.003906 802.375 C 1063.246094 800.789062 1062.417969 799.136719 1061.730469 797.550781 L 1059.867188 792.519531 C 1057.730469 785.695312 1056.628906 778.597656 1056.558594 771.496094 C 1056.699219 764.398438 1057.730469 757.230469 1059.867188 750.476562 L 1061.730469 745.445312 C 1062.417969 743.859375 1063.246094 742.207031 1064.003906 740.621094 C 1064.691406 739.035156 1065.726562 737.449219 1066.621094 735.933594 L 1068 733.660156 C 1068.484375 732.902344 1069.035156 732.210938 1069.585938 731.523438 L 1071.171875 729.386719 L 1072 728.351562 L 1072.964844 727.316406 C 1074.136719 726.078125 1075.308594 724.699219 1076.617188 723.390625 L 1080.613281 719.804688 C 1081.304688 719.183594 1081.992188 718.703125 1082.75 718.21875 L 1084.886719 716.703125 C 1090.675781 712.636719 1097.085938 709.46875 1103.910156 707.539062 C 1110.734375 705.675781 1117.761719 704.988281 1124.726562 705.332031 C 1131.6875 705.746094 1138.441406 707.398438 1144.78125 710.15625 C 1147.953125 711.535156 1150.914062 713.1875 1153.808594 714.980469 C 1156.636719 716.910156 1159.324219 718.910156 1161.734375 721.253906 C 1166.5625 725.59375 1170.558594 730.902344 1173.523438 736.691406 " fill-opacity="1" fill-rule="nonzero"/><g transform="matrix(1, 0, 0, 1, 256, 665)"><g clip-path="url(#3d3363176a)"><g fill="#ffffff" fill-opacity="1"><g transform="translate(4.435013, 199.577816)"><g><path d="M 51.625 0 L 26.390625 0 L 26.390625 -193.984375 L 105.96875 -193.984375 C 115.382812 -193.984375 124.015625 -192.410156 131.859375 -189.265625 C 139.703125 -186.128906 146.523438 -181.734375 152.328125 -176.078125 C 158.128906 -170.421875 162.597656 -163.71875 165.734375 -155.96875 C 168.867188 -148.21875 170.4375 -139.78125 170.4375 -130.65625 C 170.4375 -121.144531 168.867188 -112.46875 165.734375 -104.625 C 162.597656 -96.78125 158.175781 -90.003906 152.46875 -84.296875 C 146.769531 -78.585938 140.019531 -74.164062 132.21875 -71.03125 C 124.425781 -67.894531 115.867188 -66.328125 106.546875 -66.328125 L 51.625 -66.328125 Z M 51.625 -171.296875 L 51.625 -89.140625 L 105.40625 -89.140625 C 113.007812 -89.140625 119.804688 -90.945312 125.796875 -94.5625 C 131.785156 -98.175781 136.515625 -103.117188 139.984375 -109.390625 C 143.460938 -115.671875 145.203125 -122.710938 145.203125 -130.515625 C 145.203125 -136.117188 144.203125 -141.367188 142.203125 -146.265625 C 140.203125 -151.160156 137.367188 -155.484375 133.703125 -159.234375 C 130.046875 -162.992188 125.789062 -165.941406 120.9375 -168.078125 C 116.09375 -170.222656 110.820312 -171.296875 105.125 -171.296875 Z M 51.625 -171.296875 "/></g></g><g transform="translate(180.726521, 199.577816)"><g><path d="M 51.625 0 L 26.390625 0 L 26.390625 -193.984375 L 51.625 -193.984375 L 51.625 -108.546875 L 163.734375 -108.546875 L 163.734375 -193.984375 L 189.125 -193.984375 L 189.125 0 L 163.734375 0 L 163.734375 -85.859375 L 51.625 -85.859375 Z M 51.625 0 "/></g></g><g transform="translate(396.241462, 199.577816)"><g><path d="M 115.109375 3.84375 C 103.691406 3.84375 92.800781 2.15625 82.4375 -1.21875 C 72.070312 -4.59375 62.585938 -9.367188 53.984375 -15.546875 C 45.378906 -21.722656 37.890625 -29.019531 31.515625 -37.4375 C 25.148438 -45.851562 20.226562 -55.097656 16.75 -65.171875 C 13.28125 -75.253906 11.546875 -85.90625 11.546875 -97.125 C 11.546875 -108.445312 13.28125 -119.171875 16.75 -129.296875 C 20.226562 -139.421875 25.148438 -148.691406 31.515625 -157.109375 C 37.890625 -165.523438 45.378906 -172.796875 53.984375 -178.921875 C 62.585938 -185.054688 72.070312 -189.8125 82.4375 -193.1875 C 92.800781 -196.570312 103.691406 -198.265625 115.109375 -198.265625 C 126.609375 -198.265625 137.539062 -196.570312 147.90625 -193.1875 C 158.269531 -189.8125 167.78125 -185.054688 176.4375 -178.921875 C 185.09375 -172.796875 192.601562 -165.523438 198.96875 -157.109375 C 205.34375 -148.691406 210.265625 -139.421875 213.734375 -129.296875 C 217.203125 -119.171875 218.9375 -108.445312 218.9375 -97.125 C 218.9375 -85.90625 217.203125 -75.253906 213.734375 -65.171875 C 210.265625 -55.097656 205.34375 -45.851562 198.96875 -37.4375 C 192.601562 -29.019531 185.09375 -21.722656 176.4375 -15.546875 C 167.78125 -9.367188 158.269531 -4.59375 147.90625 -1.21875 C 137.539062 2.15625 126.609375 3.84375 115.109375 3.84375 Z M 115.109375 -19.546875 C 125.941406 -19.546875 136.113281 -21.492188 145.625 -25.390625 C 155.132812 -29.285156 163.5 -34.75 170.71875 -41.78125 C 177.945312 -48.820312 183.582031 -57.050781 187.625 -66.46875 C 191.664062 -75.882812 193.6875 -86.101562 193.6875 -97.125 C 193.6875 -108.15625 191.664062 -118.398438 187.625 -127.859375 C 183.582031 -137.328125 177.945312 -145.578125 170.71875 -152.609375 C 163.5 -159.648438 155.132812 -165.144531 145.625 -169.09375 C 136.113281 -173.039062 125.941406 -175.015625 115.109375 -175.015625 C 104.265625 -175.015625 94.109375 -173.039062 84.640625 -169.09375 C 75.179688 -165.144531 66.863281 -159.648438 59.6875 -152.609375 C 52.507812 -145.578125 46.898438 -137.328125 42.859375 -127.859375 C 38.816406 -118.398438 36.796875 -108.15625 36.796875 -97.125 C 36.796875 -86.101562 38.816406 -75.882812 42.859375 -66.46875 C 46.898438 -57.050781 52.507812 -48.820312 59.6875 -41.78125 C 66.863281 -34.75 75.179688 -29.285156 84.640625 -25.390625 C 94.109375 -21.492188 104.265625 -19.546875 115.109375 -19.546875 Z M 115.109375 -19.546875 "/></g></g><g transform="translate(626.732623, 199.577816)"><g><path d="M 93.5625 0 L 68.328125 0 L 68.328125 -171.296875 L 6.984375 -171.296875 L 6.984375 -193.984375 L 155.046875 -193.984375 L 155.046875 -171.296875 L 93.5625 -171.296875 Z M 93.5625 0 "/></g></g></g></g></g><g transform="matrix(1, 0, 0, 1, 280, 568)"><g clip-path="url(#ded4fc0238)"><g clip-path="url(#50710c1f21)"><g fill="#ffffff" fill-opacity="1"><g transform="translate(0.876093, 62.03004)"><g><path d="M 16.25 0 L 8.3125 0 L 8.3125 -61.0625 L 34.265625 -61.0625 C 37.222656 -61.0625 39.9375 -60.601562 42.40625 -59.6875 C 44.875 -58.78125 47.015625 -57.476562 48.828125 -55.78125 C 50.640625 -54.09375 52.035156 -52.070312 53.015625 -49.71875 C 54.003906 -47.375 54.5 -44.765625 54.5 -41.890625 C 54.5 -38.898438 53.945312 -36.195312 52.84375 -33.78125 C 51.738281 -31.375 50.179688 -29.347656 48.171875 -27.703125 C 46.171875 -26.054688 43.820312 -24.875 41.125 -24.15625 L 55.859375 0 L 46.6875 0 L 33.140625 -22.984375 C 32.804688 -22.953125 32.472656 -22.9375 32.140625 -22.9375 C 31.816406 -22.9375 31.488281 -22.9375 31.15625 -22.9375 L 16.25 -22.9375 Z M 16.25 -53.921875 L 16.25 -29.71875 L 34.078125 -29.71875 C 36.472656 -29.75 38.601562 -30.265625 40.46875 -31.265625 C 42.34375 -32.273438 43.828125 -33.691406 44.921875 -35.515625 C 46.015625 -37.335938 46.5625 -39.445312 46.5625 -41.84375 C 46.5625 -44.175781 46.003906 -46.25 44.890625 -48.0625 C 43.785156 -49.875 42.28125 -51.300781 40.375 -52.34375 C 38.476562 -53.394531 36.332031 -53.921875 33.9375 -53.921875 Z M 16.25 -53.921875 "/></g></g></g></g><g clip-path="url(#1317d721d8)"><g fill="#ffffff" fill-opacity="1"><g transform="translate(133.078579, 62.03004)"><g><path d="M 59.890625 0 L 51.453125 0 L 45.65625 -13.828125 L 14.8125 -13.828125 L 9.03125 0 L 0.578125 0 L 26.453125 -61.0625 L 34.078125 -61.0625 Z M 29.953125 -49.875 L 17.640625 -20.5625 L 42.828125 -20.5625 L 30.53125 -49.875 L 30.3125 -50.921875 L 30.21875 -50.921875 Z M 29.953125 -49.875 "/></g></g></g></g><g clip-path="url(#02bc15000a)"><g fill="#ffffff" fill-opacity="1"><g transform="translate(267.121862, 62.03004)"><g><path d="M 16.25 0 L 8.3125 0 L 8.3125 -61.0625 L 33.359375 -61.0625 C 36.328125 -61.0625 39.046875 -60.566406 41.515625 -59.578125 C 43.984375 -58.585938 46.128906 -57.203125 47.953125 -55.421875 C 49.773438 -53.640625 51.179688 -51.53125 52.171875 -49.09375 C 53.160156 -46.65625 53.65625 -44 53.65625 -41.125 C 53.65625 -38.132812 53.160156 -35.40625 52.171875 -32.9375 C 51.179688 -30.46875 49.785156 -28.332031 47.984375 -26.53125 C 46.191406 -24.738281 44.066406 -23.347656 41.609375 -22.359375 C 39.160156 -21.367188 36.472656 -20.875 33.546875 -20.875 L 16.25 -20.875 Z M 16.25 -53.921875 L 16.25 -28.0625 L 33.1875 -28.0625 C 35.570312 -28.0625 37.707031 -28.628906 39.59375 -29.765625 C 41.476562 -30.898438 42.96875 -32.457031 44.0625 -34.4375 C 45.15625 -36.414062 45.703125 -38.628906 45.703125 -41.078125 C 45.703125 -42.847656 45.390625 -44.503906 44.765625 -46.046875 C 44.140625 -47.585938 43.25 -48.945312 42.09375 -50.125 C 40.9375 -51.3125 39.59375 -52.238281 38.0625 -52.90625 C 36.539062 -53.582031 34.882812 -53.921875 33.09375 -53.921875 Z M 16.25 -53.921875 "/></g></g></g></g><g clip-path="url(#f164c72c66)"><g fill="#ffffff" fill-opacity="1"><g transform="translate(396.181537, 62.03004)"><g><path d="M 16.25 0 L 8.3125 0 L 8.3125 -61.0625 L 16.25 -61.0625 Z M 16.25 0 "/></g></g></g></g><g clip-path="url(#9ca5129c1d)"><g fill="#ffffff" fill-opacity="1"><g transform="translate(494.307133, 62.03004)"><g><path d="M 30.75 0 L 8.3125 0 L 8.3125 -61.0625 L 30.625 -61.0625 C 35.4375 -61.0625 39.816406 -60.332031 43.765625 -58.875 C 47.722656 -57.425781 51.125 -55.351562 53.96875 -52.65625 C 56.8125 -49.96875 58.992188 -46.757812 60.515625 -43.03125 C 62.046875 -39.3125 62.8125 -35.160156 62.8125 -30.578125 C 62.8125 -25.992188 62.046875 -21.820312 60.515625 -18.0625 C 58.992188 -14.3125 56.816406 -11.085938 53.984375 -8.390625 C 51.160156 -5.703125 47.785156 -3.628906 43.859375 -2.171875 C 39.941406 -0.722656 35.570312 0 30.75 0 Z M 16.125 -53.96875 L 16.125 -7.1875 L 30.578125 -7.1875 C 35.578125 -7.1875 39.878906 -8.132812 43.484375 -10.03125 C 47.085938 -11.9375 49.867188 -14.628906 51.828125 -18.109375 C 53.796875 -21.597656 54.78125 -25.691406 54.78125 -30.390625 C 54.78125 -35.117188 53.796875 -39.25 51.828125 -42.78125 C 49.867188 -46.320312 47.070312 -49.070312 43.4375 -51.03125 C 39.800781 -52.988281 35.453125 -53.96875 30.390625 -53.96875 Z M 16.125 -53.96875 "/></g></g></g></g></g></g></svg>